# xmcd
#
# Track frame offsets:
#	150
#	49080
#	131332
#	155498
#	189869
#	294853
#
# Disc length: 4746 seconds
#
# Revision: 0
# Processed by: cddbd v1.5.2PL0 Copyright (c) Steve Scherf et al.
# Submitted via: audiograbber 1.83.01
#
DISCID=46128806
DTITLE=Grateful Dead - 94-06-26 Sam Boyd Silver Bowl, Las Vegas NV
DYEAR=1900
DGENRE=
TTITLE0=Victim Or The Crime
TTITLE1=Eyes Of The World
TTITLE2=Box Of Rain
TTITLE3=Saint Of Circumstance
TTITLE4=Terrapin Station
TTITLE5=Drums
EXTD=
EXTT0=
EXTT1=
EXTT2=
EXTT3=
EXTT4=
EXTT5=
PLAYORDER=
